<svg width="34" height="34" viewBox="0 0 34 34" fill="none" xmlns="http://www.w3.org/2000/svg">
<path d="M29.2188 3.71875H4.78125C4.19355 3.71875 3.71875 4.19355 3.71875 4.78125V29.2188C3.71875 29.8064 4.19355 30.2812 4.78125 30.2812H29.2188C29.8064 30.2812 30.2812 29.8064 30.2812 29.2188V4.78125C30.2812 4.19355 29.8064 3.71875 29.2188 3.71875ZM26.1508 11.4717H24.0291C22.3656 11.4717 22.0436 12.2619 22.0436 13.424V15.984H26.0146L25.4967 19.9916H22.0436V30.2812H17.9031V19.9949H14.44V15.984H17.9031V13.0289C17.9031 9.59902 19.9982 7.72969 23.0596 7.72969C24.5271 7.72969 25.7855 7.83926 26.1541 7.88906V11.4717H26.1508Z" fill="#675656"/>
</svg>
