<svg width="24" height="24" viewBox="0 0 24 24" fill="none" xmlns="http://www.w3.org/2000/svg">
<g clip-path="url(#clip0_10_109)">
<path d="M12 11.2941C15.3137 11.2941 18 8.76584 18 5.64706C18 2.52827 15.3137 0 12 0C8.68629 0 6 2.52827 6 5.64706C6 8.76584 8.68629 11.2941 12 11.2941Z" fill="#675656"/>
<path d="M21 14.1177H3C2.20435 14.1177 1.44129 14.4152 0.87868 14.9447C0.316071 15.4742 0 16.1924 0 16.9412V36.7059H6V56.4706H18V36.7059H24V16.9412C24 16.1924 23.6839 15.4742 23.1213 14.9447C22.5587 14.4152 21.7956 14.1177 21 14.1177Z" fill="#675656"/>
</g>
<defs>
<clipPath id="clip0_10_109">
<rect width="24" height="24" fill="white"/>
</clipPath>
</defs>
</svg>
