<svg width="27" height="25" viewBox="0 0 27 25" fill="none" xmlns="http://www.w3.org/2000/svg">
<path d="M1.7038 6.02937C1.7038 4.85252 2.20012 3.72387 3.08359 2.89171C3.96705 2.05954 5.16529 1.59204 6.4147 1.59204H20.5474C21.7968 1.59204 22.995 2.05954 23.8785 2.89171C24.762 3.72387 25.2583 4.85252 25.2583 6.02937V19.3414C25.2583 20.5182 24.762 21.6469 23.8785 22.479C22.995 23.3112 21.7968 23.7787 20.5474 23.7787H6.4147C5.16529 23.7787 3.96705 23.3112 3.08359 22.479C2.20012 21.6469 1.7038 20.5182 1.7038 19.3414V6.02937Z" stroke="#675656" stroke-width="2" stroke-linecap="round" stroke-linejoin="round"/>
<path d="M9.35902 11.5761C10.9851 11.5761 12.3033 10.3344 12.3033 8.80275C12.3033 7.27108 10.9851 6.02942 9.35902 6.02942C7.73292 6.02942 6.4147 7.27108 6.4147 8.80275C6.4147 10.3344 7.73292 11.5761 9.35902 11.5761Z" stroke="#675656" stroke-width="2" stroke-linecap="round" stroke-linejoin="round"/>
<path d="M16.456 13.3744L6.4147 23.7788H20.704C21.9119 23.7788 23.0703 23.3269 23.9244 22.5224C24.7785 21.7179 25.2583 20.6267 25.2583 19.489V19.3415C25.2583 18.8245 25.0522 18.626 24.6812 18.2432L19.935 13.3677C19.7138 13.1404 19.4447 12.9591 19.1449 12.8352C18.8452 12.7113 18.5213 12.6477 18.1939 12.6483C17.8666 12.6489 17.543 12.7138 17.2437 12.8388C16.9445 12.9639 16.6762 13.1462 16.456 13.3744V13.3744Z" stroke="#675656" stroke-width="2" stroke-linecap="round" stroke-linejoin="round"/>
</svg>
